<svg width="1200" height="800" viewBox="0 0 1200 800" fill="none" xmlns="http://www.w3.org/2000/svg">
  <defs>
    <linearGradient id="bg" x1="120" y1="80" x2="1080" y2="720" gradientUnits="userSpaceOnUse">
      <stop stop-color="#EEF2FF"/>
      <stop offset="0.5" stop-color="#E0F2FE"/>
      <stop offset="1" stop-color="#ECFEFF"/>
    </linearGradient>
    <linearGradient id="card" x1="0" y1="0" x2="1" y2="1">
      <stop stop-color="#4F46E5"/>
      <stop offset="1" stop-color="#06B6D4"/>
    </linearGradient>
  </defs>

  <rect x="0" y="0" width="1200" height="800" rx="42" fill="url(#bg)"/>

  <circle cx="170" cy="140" r="90" fill="#C7D2FE" fill-opacity="0.6"/>
  <circle cx="1030" cy="160" r="110" fill="#A5F3FC" fill-opacity="0.55"/>
  <circle cx="980" cy="670" r="120" fill="#99F6E4" fill-opacity="0.45"/>

  <rect x="120" y="220" width="960" height="440" rx="28" fill="white" fill-opacity="0.92"/>

  <rect x="180" y="290" width="420" height="22" rx="11" fill="#CBD5E1"/>
  <rect x="180" y="326" width="340" height="16" rx="8" fill="#E2E8F0"/>
  <rect x="180" y="350" width="380" height="16" rx="8" fill="#E2E8F0"/>

  <rect x="180" y="410" width="260" height="170" rx="20" fill="#F8FAFC" stroke="#E2E8F0"/>
  <rect x="210" y="450" width="80" height="96" rx="10" fill="#6366F1"/>
  <rect x="304" y="434" width="80" height="112" rx="10" fill="#22D3EE"/>

  <rect x="480" y="410" width="540" height="170" rx="20" fill="#F8FAFC" stroke="#E2E8F0"/>
  <path d="M530 520L620 470L700 500L790 430L860 455L950 390" stroke="url(#card)" stroke-width="12" stroke-linecap="round" stroke-linejoin="round"/>
  <circle cx="950" cy="390" r="12" fill="#06B6D4"/>

  <rect x="650" y="270" width="300" height="96" rx="20" fill="url(#card)"/>
  <text x="680" y="325" fill="white" font-family="Arial, sans-serif" font-size="34" font-weight="700">Lead Growth</text>
</svg>
